# xmcd
#
# Track frame offsets:
# 150
# 10889
# 26859
# 47968
# 62582
# 73721
# 88970
# 99388
# 115311
# 130070
# 150844
# 166561
# 179371
# 189524
# 202761
# 217757
# 234771
# 246678
#
# Disc length: 3496 seconds
#
#
# Revision: 1
# Processed by: cddbd v1.5.2PL0 Copyright (c) Steve Scherf et al.
# Submitted via: FreeRIP 2.951 
#
DISCID=e90da612
DTITLE=Günter Dahmen - Dat Pünkelche om i
DYEAR=1900
DGENRE=Karneval
TTITLE0=Günter Dahmen   Dat Pünkelche om i
TTITLE1=Günter Dahmen   Wenn do nit su suffe däs
TTITLE2=Günter Dahmen   Jan von Werth Marsch
TTITLE3=Günter Dahmen   Decke Minsche sin gemütlich
TTITLE4=Günter Dahmen   Marieche danz
TTITLE5=Günter Dahmen   Dä kölsche Maat
TTITLE6=Günter Dahmen   Riefe Prumme muste plöcke
TTITLE7=Günter Dahmen   Die Glocken vun Kölle
TTITLE8=Günter Dahmen   Schmitz, Schmitz, Schmitz
TTITLE9=Günter Dahmen   Die Domklock
TTITLE10=Günter Dahmen   Die lila Söckcher
TTITLE11=Günter Dahmen   Mein Herz die Mausefalle
TTITLE12=Günter Dahmen   Dä Bömmel an der Dühr
TTITLE13=Günter Dahmen   Ein Glas Kölsch sin sibbe Schnidde Brut
TTITLE14=Günter Dahmen   Colonia, Colonia
TTITLE15=Günter Dahmen   Wenn do en Plaat häs
TTITLE16=Günter Dahmen   Do häs zwei linke Häng
TTITLE17=Günter Dahmen   Rheinische Art
EXTD=
EXTT0=
EXTT1=
EXTT2=
EXTT3=
EXTT4=
EXTT5=
EXTT6=
EXTT7=
EXTT8=
EXTT9=
EXTT10=
EXTT11=
EXTT12=
EXTT13=
EXTT14=
EXTT15=
EXTT16=
EXTT17=
PLAYORDER=
